# xmcd
#
# Track frame offsets: 
#        150
#        23983
#        51910
#        67728
#        92573
#        113875
#        139728
#        157359
#        182213
#        209200
#
# Disc length: 3210 seconds
#
# Revision: 0
# Processed by: cddbd v1.5.2PL0 Copyright (c) Steve Scherf et al.
# Submitted via: ExactAudioCopy v1.0b4
#
DISCID=950c880a
DTITLE=Faris - Mississippi to Sahara
DYEAR=2015
DGENRE=Blues
TTITLE0=Oulhawen Win Tidit
TTITLE1=Alwaq Semman
TTITLE2=Assouf Id Nekmam
TTITLE3=Imiskay Idjoleman
TTITLE4=Aghregh Yallah
TTITLE5=Inezdjam
TTITLE6=Oulh Essayaq
TTITLE7=Alkhoriya
TTITLE8=War Toyed (Feat. Leo Welch)
TTITLE9=Ma Ihan Iman Nagadem (Feat. Leo Welch)
EXTD=
EXTT0=
EXTT1=
EXTT2=
EXTT3=
EXTT4=
EXTT5=
EXTT6=
EXTT7=
EXTT8=
EXTT9=
PLAYORDER=
